<svg width="43" height="42" viewBox="0 0 43 42" fill="none" xmlns="http://www.w3.org/2000/svg">
<path fill-rule="evenodd" clip-rule="evenodd" d="M9.54126 0.00110661C11.8297 0.0318375 13.4605 1.74662 15.5235 3.91622C16.0337 4.45094 16.5848 5.03483 17.2015 5.64945C20.1905 8.64059 19.3403 11.0806 18.654 13.0392C17.9083 15.176 17.2629 17.0199 21.1268 20.8838C24.9907 24.7477 26.8325 24.1023 28.9673 23.3504C30.9279 22.6662 33.3618 21.8098 36.3571 24.8009C36.9655 25.4094 37.5392 25.9544 38.0718 26.4604C40.2496 28.5337 41.9706 30.1707 41.9996 32.4652C42.0218 34.4197 40.8335 36.4152 37.8997 39.3489L36.6008 38.468L37.701 39.5395C37.0516 40.2053 35.3245 41.9795 31.942 42H31.8806C26.7752 42 20.1188 37.9353 12.096 29.9146C4.04043 21.861 -0.0303874 15.1842 0.000170766 10.0685C0.018782 6.68815 1.79093 4.95698 2.45677 4.30753L2.5136 4.24546L2.6514 4.10675C5.59132 1.16683 7.61136 -0.0419166 9.54126 0.00110661ZM9.50234 3.0742H9.48595C8.56594 3.0742 7.16877 3.99612 5.22015 5.88893L4.82885 6.2732L4.83329 6.27226C4.83575 6.27226 4.79985 6.31061 4.74287 6.36873L4.60588 6.50581C4.11009 6.98726 3.08368 7.98909 3.07333 10.0849C3.05704 13.0167 4.9849 18.4601 14.2677 27.7409C23.5054 36.9765 28.9407 38.9269 31.8806 38.9269H31.9236C34.0195 38.9146 35.0192 37.8882 35.5007 37.3945C35.6461 37.2449 35.765 37.1322 35.849 37.0646C37.8915 35.0097 38.9364 33.4834 38.9262 32.5021C38.9139 31.5023 37.6703 30.3223 35.9514 28.6853C35.4044 28.167 34.8103 27.5995 34.1833 26.9726C32.5567 25.352 31.7556 25.6286 29.9835 26.2514C27.5352 27.1099 24.1815 28.2858 18.9552 23.0554C13.7268 17.8291 14.8987 14.4754 15.753 12.0251C16.3717 10.255 16.6544 9.44983 15.0298 7.82314C14.3947 7.18804 13.8231 6.58571 13.2966 6.03256C11.6699 4.32392 10.496 3.08854 9.50234 3.0742ZM27.138 7.28945C31.4014 8.11714 34.6937 11.4074 35.5234 15.6728C35.6853 16.5087 35.1424 17.3139 34.3106 17.4757C34.2102 17.4942 34.1119 17.5044 34.0135 17.5044C33.2924 17.5044 32.6511 16.9963 32.5077 16.2629C31.9177 13.2308 29.5801 10.8932 26.552 10.3052C25.7182 10.1433 25.1753 9.33818 25.3372 8.50435C25.499 7.67051 26.3185 7.12555 27.138 7.28945ZM27.0153 0.0127843C35.37 0.940857 41.8583 7.42098 42.7946 15.7736C42.8888 16.6177 42.2824 17.3778 41.4403 17.472C41.383 17.4782 41.3236 17.4823 41.2662 17.4823C40.4938 17.4823 39.8301 16.9025 39.742 16.1178C38.9655 9.20132 33.5937 3.83366 26.6752 3.06539C25.8332 2.97115 25.2247 2.21312 25.3189 1.36904C25.4111 0.527015 26.163 -0.0937494 27.0153 0.0127843Z" fill="#19A463"/>
</svg>
