<svg width="44" height="42" viewBox="0 0 44 42" fill="none" xmlns="http://www.w3.org/2000/svg">
<g id="Iconly/Light-Outline/Edit">
<g id="Edit">
<path id="Combined-Shape" fill-rule="evenodd" clip-rule="evenodd" d="M41.5805 38.6734C42.4986 38.6734 43.2437 39.4185 43.2437 40.3366C43.2437 41.2547 42.4986 41.9998 41.5805 41.9998H25.4965C24.5784 41.9998 23.8333 41.2547 23.8333 40.3366C23.8333 39.4185 24.5784 38.6734 25.4965 38.6734H41.5805ZM31.3038 1.4495C31.4147 1.53598 35.1247 4.41883 35.1247 4.41883C36.473 5.22159 37.5263 6.65636 37.9255 8.35502C38.3225 10.0359 38.0342 11.7701 37.1094 13.2359C37.1033 13.2457 37.0971 13.2553 37.0757 13.2841L37.059 13.3063C36.9089 13.5041 36.2564 14.3291 32.9632 18.4551C32.9326 18.5092 32.898 18.5599 32.8601 18.6091C32.8046 18.6816 32.7442 18.7483 32.6797 18.809C32.455 19.0918 32.2178 19.389 31.9683 19.7014L31.4629 20.3345C30.42 21.6406 29.1829 23.1893 27.7153 25.0263L26.9622 25.969C24.1288 29.5153 20.5002 34.0558 15.8518 39.8711C14.8339 41.1396 13.3083 41.878 11.6695 41.898L3.59973 42H3.57755C2.80805 42 2.13835 41.4722 1.95872 40.7205L0.142533 33.0233C-0.232237 31.4288 0.140315 29.7834 1.16262 28.5061L22.0521 2.37866C22.061 2.36979 22.0677 2.3587 22.0765 2.34983C24.3673 -0.388867 28.5097 -0.792465 31.3038 1.4495ZM19.7231 10.6155L3.75939 30.5839C3.38019 31.0585 3.24048 31.6706 3.38019 32.2582L4.89035 38.6559L11.6295 38.5716C12.2704 38.565 12.8625 38.2789 13.255 37.7911C15.2763 35.2621 17.8167 32.0835 20.4286 28.8152L21.3526 27.6588L22.2782 26.5004C24.7277 23.435 27.1476 20.4062 29.1724 17.8711L19.7231 10.6155ZM24.6378 4.47205L21.8009 8.01652L31.2495 15.27C33.0682 12.9921 34.2646 11.4918 34.3752 11.3487C34.7389 10.7589 34.8808 9.92506 34.6901 9.12229C34.4949 8.29958 33.9827 7.60104 33.2442 7.15531C33.0868 7.04665 29.3502 4.14607 29.2348 4.05514C27.8289 2.92862 25.7777 3.12376 24.6378 4.47205Z" fill="#19A463"/>
</g>
</g>
</svg>
