<svg width="42" height="42" viewBox="0 0 42 42" fill="none" xmlns="http://www.w3.org/2000/svg">
<g id="Iconly/Light-Outline/Graph">
<g id="Graph">
<path id="Combined-Shape" fill-rule="evenodd" clip-rule="evenodd" d="M16.0311 8.27122C16.8831 8.94024 17.373 9.93788 17.373 11.0083C17.373 19.6368 17.6643 21.9587 18.8547 22.8422C19.6359 23.4188 20.7064 23.4129 24.3132 23.3125C25.9897 23.2633 28.1365 23.2004 30.9484 23.2004C32.07 23.2004 33.1267 23.6805 33.8429 24.5168C34.508 25.294 34.7992 26.3094 34.6457 27.309C33.3313 35.8194 26.0901 42 17.4281 42C7.81777 42 0 34.1822 0 24.5738C0 16.9548 5.7615 9.33576 12.8433 7.59235C13.9492 7.32278 15.1377 7.57464 16.0311 8.27122ZM13.7387 10.4357C13.6757 10.4357 13.6127 10.4436 13.5498 10.4593C7.70561 11.8977 2.95159 18.2299 2.95159 24.5738C2.95159 32.5549 9.44508 39.0484 17.4281 39.0484C24.6241 39.0484 30.6375 33.9225 31.7276 26.8584C31.7355 26.7993 31.763 26.6281 31.6017 26.4373C31.4482 26.2582 31.2042 26.1519 30.9484 26.1519C28.1719 26.1519 26.0527 26.2149 24.3978 26.2621C20.3915 26.3822 18.7347 26.4274 17.0976 25.2133C14.7566 23.4791 14.4488 20.5635 14.4234 12.3819L14.4215 11.0083C14.4215 10.843 14.3506 10.7053 14.2089 10.5951C14.0771 10.4908 13.9099 10.4357 13.7387 10.4357ZM35.5182 5.37925C38.9775 8.83655 41.1735 13.38 41.1105 16.9554C41.0869 18.3505 40.0735 19.5154 38.704 19.722C36.0318 20.1254 32.9031 20.2474 30.1345 20.2474C27.5568 20.2474 25.288 20.1431 23.9834 20.0683C22.3423 19.9719 21.0358 18.6634 20.9413 17.0223C20.7878 14.421 20.4553 7.81136 20.6914 2.69921C20.7564 1.21358 21.9567 0.0309751 23.4246 0.00539464C27.6296 -0.116604 31.9685 1.83538 35.5182 5.37925ZM23.6765 2.95502H23.6332C23.4167 7.91172 23.7375 14.3147 23.887 16.8511C23.8949 17.0026 24.0051 17.1128 24.1546 17.1207C26.1774 17.2368 33.1471 17.5595 38.159 16.8216C38.1707 14.0589 36.2797 10.3123 33.4324 7.46701C30.5123 4.55084 27.057 2.95502 23.6765 2.95502Z" fill="#19A463"/>
</g>
</g>
</svg>
