<svg width="22" height="22" viewBox="0 0 22 22" fill="none" xmlns="http://www.w3.org/2000/svg">
<g id="akar-icons:location">
<g id="Group">
<path id="Vector" d="M11 11.9165C12.5188 11.9165 13.75 10.6853 13.75 9.1665C13.75 7.64772 12.5188 6.4165 11 6.4165C9.48122 6.4165 8.25 7.64772 8.25 9.1665C8.25 10.6853 9.48122 11.9165 11 11.9165Z" stroke="#111D3B" stroke-width="2" stroke-linecap="round" stroke-linejoin="round"/>
<path id="Vector_2" d="M10.9998 1.83325C9.05492 1.83325 7.18965 2.60587 5.81439 3.98114C4.43912 5.3564 3.6665 7.22166 3.6665 9.16659C3.6665 10.9009 4.035 12.0358 5.0415 13.2916L10.9998 20.1666L16.9582 13.2916C17.9647 12.0358 18.3332 10.9009 18.3332 9.16659C18.3332 7.22166 17.5606 5.3564 16.1853 3.98114C14.81 2.60587 12.9448 1.83325 10.9998 1.83325V1.83325Z" stroke="#111D3B" stroke-width="2" stroke-linecap="round" stroke-linejoin="round"/>
</g>
</g>
</svg>
