<svg width="42" height="32" viewBox="0 0 42 32" fill="none" xmlns="http://www.w3.org/2000/svg">
<path fill-rule="evenodd" clip-rule="evenodd" d="M12.2761 0.00228691L13.2243 0.00350393C13.3864 0.00373287 13.5503 0.00397399 13.7157 0.00422601L14.7235 0.00585838C16.9348 0.00963338 19.29 0.0148105 21.0851 0.0185417L21.8713 0.0201508C21.9948 0.0203984 22.1144 0.0206348 22.2297 0.0208588C26.7659 -0.297685 30.8606 3.0692 31.2256 7.58728C31.229 7.63362 31.2319 7.8966 31.2344 8.37496L35.4194 4.9476C36.6372 3.94963 38.2763 3.75407 39.6976 4.42543C41.119 5.10082 42.002 6.49596 42 8.06852L41.9758 22.8848C41.9738 24.4574 41.0887 25.8525 39.6694 26.5219C39.1129 26.786 38.5242 26.913 37.9396 26.913C37.0303 26.913 36.1331 26.6005 35.3932 25.9937L31.2438 22.5506C31.2437 22.6089 31.2437 22.6675 31.2437 22.7262C31.3284 24.8552 30.5703 26.9055 29.1066 28.4983C27.5684 30.1736 25.4474 31.1474 23.137 31.2422C23.0978 31.245 22.8769 31.2469 22.5146 31.2481L21.7181 31.2494C21.4074 31.2497 21.0544 31.2497 20.6678 31.2495L18.9623 31.2479C18.8086 31.2477 18.6525 31.2475 18.4942 31.2472L17.5216 31.2457C15.2044 31.2418 12.5942 31.2357 10.5705 31.2313L9.74168 31.2296C9.47909 31.229 9.23104 31.2285 9.00008 31.2281C8.78638 31.2442 8.57267 31.2522 8.35896 31.2522C4.09693 31.2543 0.379242 27.9882 0.0284411 23.704L0.0281271 23.6996L0.0262436 23.6597C0.0261025 23.6553 0.0259585 23.6505 0.025812 23.6452L0.0244276 23.5817C0.0242671 23.5727 0.0241045 23.563 0.02394 23.5525L0.0224145 23.4351C0.0222405 23.4193 0.0220652 23.4025 0.0218888 23.3847L0.0202759 23.1941C0.0200945 23.1694 0.0199125 23.1434 0.0197301 23.1161L0.0186328 22.936C0.0184497 22.9032 0.0182665 22.8689 0.0180836 22.8331L0.0164472 22.4682C0.0162671 22.4227 0.0160877 22.3755 0.0159092 22.3265L0.0143333 21.8355C0.0141621 21.7752 0.0139924 21.7129 0.0138244 21.6486L0.0123627 21.0122C0.0122065 20.935 0.0120525 20.8555 0.0119009 20.7736L0.0102104 19.676C0.0100812 19.5746 0.00995518 19.4705 0.00983253 19.3638L0.00826819 17.5561C0.00818381 17.4212 0.00810373 17.2833 0.00802812 17.1423L0.00799938 9.24339C0.00808581 9.00383 0.00817933 8.76028 0.00828014 8.51267C-0.0884926 6.43407 0.665528 4.36958 2.13728 2.76275C3.67355 1.08536 5.79247 0.107551 8.10493 0.00876223C8.13607 0.00652212 8.28342 0.00482959 8.52647 0.00360168L8.96025 0.0020979C9.04365 0.00190189 9.13239 0.00173233 9.22616 0.00158791L11.8231 0.00180752C11.9714 0.00195167 12.1225 0.0021119 12.2761 0.00228691ZM22.3386 3.04097C19.7932 3.03728 16.6808 3.03283 14.0247 3.02993L12.6274 3.02851C12.4041 3.02831 12.1861 3.02812 11.9742 3.02795L8.46806 3.02806C8.33611 3.02865 8.25076 3.02955 8.21784 3.03089C6.72995 3.09339 5.35699 3.72443 4.36709 4.80506C3.44371 5.81513 2.96791 7.10543 3.03041 8.44412L3.03208 16.2322C3.03217 16.4042 3.03226 16.5749 3.03236 16.7442L3.0342 19.1515C3.03435 19.3013 3.03451 19.4486 3.03467 19.5932L3.03571 20.426C3.03589 20.5588 3.03609 20.6883 3.03628 20.8145L3.03824 21.8527C3.04039 22.7874 3.04311 23.3937 3.04654 23.5104C3.27638 26.3027 5.89327 28.4378 8.8892 28.2079C9.20601 28.2084 9.53154 28.2089 9.86383 28.2094L10.879 28.211C11.7386 28.2124 12.6282 28.2139 13.5172 28.2154L14.5817 28.2172C15.1119 28.2181 15.6374 28.2189 16.1517 28.2197L17.1634 28.2213C17.3288 28.2215 17.4925 28.2217 17.6543 28.222L18.5989 28.2232C18.7517 28.2234 18.9021 28.2236 19.0497 28.2237L22.609 28.2237C22.8419 28.2228 22.9881 28.2216 23.0321 28.22C24.514 28.1595 25.8889 27.5305 26.8788 26.4519C27.8042 25.4459 28.28 24.1556 28.2216 22.8229L28.2198 22.7897L28.2194 13.0394C28.2193 12.8811 28.2192 12.7248 28.2191 12.5707L28.2176 10.8453C28.2175 10.7129 28.2173 10.5837 28.2171 10.4579L28.2154 9.42288C28.2148 9.11228 28.2141 8.83809 28.2133 8.60633L28.2116 8.20113C28.2103 7.97108 28.209 7.82354 28.2075 7.77276C27.9796 4.96635 25.3506 2.80509 22.3386 3.04097ZM37.3347 7.28829L31.2429 12.2586C31.2432 12.5063 31.2434 12.7638 31.2436 13.031L31.2449 18.0867L37.3105 23.657C37.7561 24.0199 38.2037 23.8707 38.3771 23.786C38.5504 23.7054 38.9517 23.4534 38.9517 22.8808L38.9758 8.06449C38.9779 7.49192 38.5746 7.2399 38.4013 7.15724C38.2299 7.0766 37.7763 6.92539 37.3347 7.28829Z" fill="#19A463"/>
</svg>
