<svg width="42" height="42" viewBox="0 0 42 42" fill="none" xmlns="http://www.w3.org/2000/svg">
<g id="Iconly/Light-Outline/Activity">
<g id="Activity">
<path id="Combined-Shape" fill-rule="evenodd" clip-rule="evenodd" d="M26.1639 1.70835C27.0038 1.70835 27.6854 2.38999 27.6854 3.22986C27.6854 4.06974 27.0038 4.75138 26.1639 4.75138H11.4194C6.33152 4.75138 3.04302 8.24882 3.04302 13.6654V30.0612C3.04302 35.5488 6.2524 38.957 11.4194 38.957H28.8742C33.9622 38.957 37.2507 35.4656 37.2507 30.0612V15.7813C37.2507 14.9414 37.9323 14.2598 38.7722 14.2598C39.612 14.2598 40.2937 14.9414 40.2937 15.7813V30.0612C40.2937 37.2022 35.7048 42 28.8742 42H11.4194C4.58888 42 0 37.2022 0 30.0612V13.6654C0 6.5143 4.58888 1.70835 11.4194 1.70835H26.1639ZM30.4554 15.5638C31.1208 16.0791 31.2425 17.0346 30.7272 17.698L24.7832 25.3664C24.5357 25.687 24.1705 25.8959 23.7688 25.9446C23.3631 25.9994 22.9614 25.8817 22.6409 25.6322L16.9241 21.1407L11.7895 27.813C11.4892 28.2025 11.0389 28.4074 10.5824 28.4074C10.2578 28.4074 9.93121 28.304 9.65531 28.093C8.9899 27.5797 8.86412 26.6242 9.37738 25.9588L15.4492 18.0672C15.6967 17.7447 16.0639 17.5357 16.4656 17.485C16.8754 17.4323 17.2771 17.5459 17.5956 17.7995L23.3165 22.293L28.3212 15.8357C28.8365 15.1683 29.79 15.0445 30.4554 15.5638ZM36.4501 0C39.4404 0 41.8708 2.43036 41.8708 5.42064C41.8708 8.41091 39.4404 10.8433 36.4501 10.8433C33.4619 10.8433 31.0295 8.41091 31.0295 5.42064C31.0295 2.43036 33.4619 0 36.4501 0ZM36.4501 3.04302C35.1396 3.04302 34.0725 4.10808 34.0725 5.42064C34.0725 6.73117 35.1396 7.80028 36.4501 7.80028C37.7607 7.80028 38.8277 6.73117 38.8277 5.42064C38.8277 4.10808 37.7607 3.04302 36.4501 3.04302Z" fill="#19A463"/>
</g>
</g>
</svg>
