<svg width="39" height="42" viewBox="0 0 39 42" fill="none" xmlns="http://www.w3.org/2000/svg">
<g id="Iconly/Light-Outline/Document">
<g id="Document">
<path id="Combined-Shape" fill-rule="evenodd" clip-rule="evenodd" d="M27.2314 0C33.8637 0 38.3189 4.54174 38.3189 11.3006V30.6994C38.3189 37.5173 34.0008 41.9515 27.3179 41.9937L11.0896 42C4.45736 42 0 37.4583 0 30.6994V11.3006C0 4.48056 4.31813 0.0485183 11.001 0.00843797L27.2293 0H27.2314ZM27.2314 3.16424L11.0116 3.17268C6.10065 3.20221 3.16424 6.23988 3.16424 11.3006V30.6994C3.16424 35.7939 6.12808 38.8358 11.0875 38.8358L27.3074 38.8294C32.2183 38.7999 35.1547 35.758 35.1547 30.6994V11.3006C35.1547 6.20613 32.193 3.16424 27.2314 3.16424ZM26.8245 28.4227C27.6978 28.4227 28.4066 29.1315 28.4066 30.0048C28.4066 30.8781 27.6978 31.5869 26.8245 31.5869H11.594C10.7207 31.5869 10.0119 30.8781 10.0119 30.0048C10.0119 29.1315 10.7207 28.4227 11.594 28.4227H26.8245ZM26.8245 19.5913C27.6978 19.5913 28.4066 20.3001 28.4066 21.1734C28.4066 22.0467 27.6978 22.7555 26.8245 22.7555H11.594C10.7207 22.7555 10.0119 22.0467 10.0119 21.1734C10.0119 20.3001 10.7207 19.5913 11.594 19.5913H26.8245ZM17.405 10.7804C18.2783 10.7804 18.9871 11.4891 18.9871 12.3625C18.9871 13.2358 18.2783 13.9446 17.405 13.9446H11.5933C10.72 13.9446 10.0112 13.2358 10.0112 12.3625C10.0112 11.4891 10.72 10.7804 11.5933 10.7804H17.405Z" fill="#19A463"/>
</g>
</g>
</svg>
