<svg width="41" height="41" viewBox="0 0 41 41" fill="none" xmlns="http://www.w3.org/2000/svg">
<g id="Iconly/Light-Outline/Edit-Square">
<g id="Edit-Square">
<path id="Combined-Shape" fill-rule="evenodd" clip-rule="evenodd" d="M18.984 0.0728C19.812 0.0728 20.484 0.7448 20.484 1.5728C20.484 2.4008 19.812 3.0728 18.984 3.0728H11.506C6.338 3.0728 3 6.6128 3 12.0908V28.7188C3 34.1968 6.338 37.7368 11.506 37.7368H29.154C34.322 37.7368 37.662 34.1968 37.662 28.7188V20.6628C37.662 19.8348 38.334 19.1628 39.162 19.1628C39.99 19.1628 40.662 19.8348 40.662 20.6628V28.7188C40.662 35.9068 36.036 40.7368 29.154 40.7368H11.506C4.624 40.7368 0 35.9068 0 28.7188V12.0908C0 4.9028 4.624 0.0728 11.506 0.0728H18.984ZM36.4032 1.83L38.8372 4.264C40.0232 5.448 40.6752 7.022 40.6732 8.698C40.6732 10.374 40.0212 11.946 38.8372 13.128L23.8192 28.146C22.7172 29.248 21.2492 29.856 19.6892 29.856H12.1972C11.7932 29.856 11.4052 29.692 11.1232 29.402C10.8412 29.114 10.6872 28.724 10.6972 28.318L10.8852 20.76C10.9232 19.256 11.5292 17.842 12.5932 16.776H12.5952L27.5412 1.83C29.9852 -0.61 33.9592 -0.61 36.4032 1.83ZM26.31 7.302L14.7152 18.898C14.1972 19.416 13.9032 20.104 13.8852 20.834L13.7352 26.856H19.6892C20.4492 26.856 21.1612 26.562 21.6992 26.024L33.364 14.356L26.31 7.302ZM29.6612 3.952L28.43 5.18L35.484 12.236L36.7172 11.006C37.3332 10.39 37.6732 9.57 37.6732 8.698C37.6732 7.824 37.3332 7.002 36.7172 6.386L34.2832 3.952C33.0092 2.682 30.9372 2.682 29.6612 3.952Z" fill="#19A463"/>
</g>
</g>
</svg>
