<svg width="28" height="27" viewBox="0 0 28 27" fill="none" xmlns="http://www.w3.org/2000/svg">
<g id="Iconly/Light-Outline/2-User">
<g id="2-User">
<path id="Combined-Shape" fill-rule="evenodd" clip-rule="evenodd" d="M10.4032 16.3845C14.869 16.3845 20.8065 16.8874 20.8065 21.2381C20.8065 25.8211 13.888 26.096 10.9204 26.1125L9.84292 26.1125C6.6787 26.0961 0 25.8227 0 21.2655C0 16.6774 6.91844 16.4021 9.88608 16.3856L10.2426 16.3846C10.2982 16.3845 10.3518 16.3845 10.4032 16.3845ZM10.4032 18.44C6.5952 18.44 2.05543 18.9292 2.05543 21.2655C2.05543 23.1181 4.86452 24.0582 10.4032 24.0582C15.9419 24.0582 18.751 23.1085 18.751 21.2381C18.751 19.3814 15.9419 18.44 10.4032 18.44ZM22.893 15.7445C26.601 16.2994 27.378 18.0164 27.378 19.3579C27.378 20.3569 26.9463 21.7093 24.8868 22.489C24.7676 22.5343 24.6442 22.5562 24.5223 22.5562C24.1071 22.5562 23.7165 22.3027 23.5617 21.893C23.3603 21.3627 23.6275 20.768 24.1578 20.5679C25.3225 20.1267 25.3225 19.5881 25.3225 19.3579C25.3225 18.581 24.4031 18.0493 22.5902 17.7794C22.0283 17.6944 21.6406 17.1709 21.7241 16.6105C21.8091 16.0487 22.3421 15.6719 22.893 15.7445ZM10.4032 0C14.2825 0 17.4397 3.15715 17.4397 7.03643C17.4479 8.90551 16.723 10.6704 15.402 11.9996C14.0838 13.3302 12.323 14.066 10.4498 14.0729H10.4032C6.52257 14.0729 3.36543 10.9157 3.36543 7.03643C3.36543 3.15715 6.52257 0 10.4032 0ZM20.1153 1.53993C22.8079 1.98116 24.7619 4.28462 24.7619 7.0156C24.7565 9.76303 22.7051 12.1227 19.9892 12.5036C19.9413 12.5105 19.8933 12.5132 19.8453 12.5132C19.3411 12.5132 18.9012 12.1419 18.8286 11.628C18.7505 11.0662 19.141 10.5455 19.7028 10.4674C21.413 10.2276 22.7038 8.74354 22.7065 7.01423C22.7065 5.29589 21.476 3.84613 19.7837 3.56933C19.2232 3.47615 18.8437 2.94859 18.9355 2.38814C19.0273 1.82769 19.5576 1.45086 20.1153 1.53993ZM10.4032 2.05543C7.6558 2.05543 5.42086 4.29037 5.42086 7.03643C5.42086 9.78249 7.6558 12.0174 10.4032 12.0174H10.4457C11.7667 12.012 13.0109 11.4926 13.9441 10.5512C14.8786 9.61257 15.3897 8.36424 15.3843 7.04054C15.3843 4.29037 13.1493 2.05543 10.4032 2.05543Z" fill="#111D3B"/>
</g>
</g>
</svg>
