<svg width="35" height="42" viewBox="0 0 35 42" fill="none" xmlns="http://www.w3.org/2000/svg">
<path fill-rule="evenodd" clip-rule="evenodd" d="M32.7209 17.1925C33.5297 17.1925 34.186 17.8488 34.186 18.6576C34.186 27.6284 27.3008 35.0133 18.5587 35.7623L18.5581 40.5349C18.5581 41.3436 17.9018 42 17.093 42C16.2843 42 15.6279 41.3436 15.6279 40.5349L15.6293 35.7625C6.88631 35.0144 0 27.629 0 18.6576C0 17.8488 0.656372 17.1925 1.46512 17.1925C2.27386 17.1925 2.93023 17.8488 2.93023 18.6576C2.93023 26.5067 9.28298 32.8946 17.093 32.8946C24.9031 32.8946 31.2558 26.5067 31.2558 18.6576C31.2558 17.8488 31.9122 17.1925 32.7209 17.1925ZM17.093 0C22.2756 0 26.4913 4.23321 26.4913 9.4373V18.5953C26.4913 23.7974 22.2756 28.0306 17.093 28.0306C11.9104 28.0306 7.69284 23.7974 7.69284 18.5953V9.4373C7.69284 4.23321 11.9104 0 17.093 0ZM17.093 2.93023C13.526 2.93023 10.6231 5.84874 10.6231 9.4373V18.5953C10.6231 22.1799 13.526 25.1004 17.093 25.1004C20.6113 25.1004 23.4815 22.2593 23.5594 18.742L19.1842 18.7414C18.3755 18.7414 17.7191 18.085 17.7191 17.2763C17.7191 16.4675 18.3755 15.8111 19.1842 15.8111L23.5591 15.8096V12.2191L21.134 12.2208C20.3253 12.2208 19.6689 11.5645 19.6689 10.7557C19.6689 9.94697 20.3253 9.2906 21.134 9.2906L23.5552 9.28884L23.5508 9.06855C23.3602 5.65094 20.5371 2.93023 17.093 2.93023Z" fill="#19A463"/>
</svg>
